# xmcd
#
# Track frame offsets:
#	150
#	19842
#	35520
#	53436
#	68592
#	83904
#	103303
#	121796
#	140376
#	155895
#	173578
#	191468
#
# Disc length: 2773 seconds
#
# Revision: 0
# Processed by: cddbd v1.4PL0 Copyright (c) Steve Scherf et al.
# Submitted via: audiograbber 1.80.04
#
DISCID=970ad30c
DTITLE=Балаган Limited - Что Я Наделала!?
DYEAR=2002
DGENRE=Pop
TTITLE0=Что Я Наделала?!
TTITLE1=Казачок
TTITLE2=Частушки
TTITLE3=Три Часа
TTITLE4=Письмо Алле Пугачёвой
TTITLE5=Чтоб Тебя
TTITLE6=Колхозное Диско
TTITLE7=Милая Мама
TTITLE8=Светская Дама
TTITLE9=Виртуальная Любовь
TTITLE10=Сердце Болит
TTITLE11=Весна
EXTD=redo: Sheff
EXTT0=
EXTT1=
EXTT2=
EXTT3=
EXTT4=
EXTT5=
EXTT6=
EXTT7=
EXTT8=
EXTT9=
EXTT10=
EXTT11=
PLAYORDER=
